# xmcd
#
# Track frame offsets:
# 150
# 10955
# 23357
# 34050
# 48505
# 63740
# 75242
# 90747
# 104282
# 116717
# 131142
# 140195
# 154285
# 166125
# 178987
# 194587
# 204607
# 216527
# 230767
# 243660
#
# Disc length: 3433 seconds
#
#
# Revision: 0
# Processed by: cddbd v1.5.1PL2 Copyright (c) Steve Scherf et al.
# Submitted via: FreeRIP 2.944 
#
DISCID=2b0d6714
DTITLE=Zico e Zeca - Raizes Sertanejas
DYEAR=1900
DGENRE=Sertanejo
TTITLE0=Morena ingrata
TTITLE1=Pingo D'água
TTITLE2=Deixe o meu pinho
TTITLE3=João ninguém
TTITLE4=Menina graciosa
TTITLE5=Não vá embora
TTITLE6=Tristeza do jeca
TTITLE7=Caminhos da vida
TTITLE8=Luz vermelha
TTITLE9=Caboclinha Sertaneja
TTITLE10=Engano de carteiro
TTITLE11=Folha seca
TTITLE12=Perdoa essa mulher
TTITLE13=Olhos pretos
TTITLE14=Prova de amor
TTITLE15=Adeus morena
TTITLE16=Casinha amarela
TTITLE17=Asa branca
TTITLE18=A caneta e a enxada
TTITLE19=Capela
EXTD=
EXTT0=
EXTT1=
EXTT2=
EXTT3=
EXTT4=
EXTT5=
EXTT6=
EXTT7=
EXTT8=
EXTT9=
EXTT10=
EXTT11=
EXTT12=
EXTT13=
EXTT14=
EXTT15=
EXTT16=
EXTT17=
EXTT18=
EXTT19=
PLAYORDER=
